Coordinates
version=1
nRows=11
nColumns=40
inDegrees=yes

Units are S.I. units (second, meters, Newtons, ...)
If the header above contains a line with 'inDegrees', this indicates whether rotational values are in degrees (yes) or radians (no).

endheader
time	pelvis_tilt	pelvis_list	pelvis_rotation	pelvis_tx	pelvis_ty	pelvis_tz	hip_flexion_r	hip_adduction_r	hip_rotation_r	knee_angle_r	knee_angle_r_beta	ankle_angle_r	subtalar_angle_r	mtp_angle_r	hip_flexion_l	hip_adduction_l	hip_rotation_l	knee_angle_l	knee_angle_l_beta	ankle_angle_l	subtalar_angle_l	mtp_angle_l	lumbar_extension	lumbar_bending	lumbar_rotation	arm_flex_r	arm_add_r	arm_rot_r	elbow_flex_r	pro_sup_r	wrist_flex_r	wrist_dev_r	arm_flex_l	arm_add_l	arm_rot_l	elbow_flex_l	pro_sup_l	wrist_flex_l	wrist_dev_l
      6.00000000	     87.86801272	     43.37897669	     87.26391864	      0.41980219	      0.61512975	      0.70275986	     96.20440680	     -8.30722134	     -1.29864849	     52.70018488	      0.91979174	      6.54594312	      0.00000000	      0.00000000	     94.98534953	    -20.45743654	     -4.37326000	     53.41562551	      0.93227854	      8.63491710	      0.00000000	      0.00000000	    -46.11472551	     -9.81355738	      0.73259415	     76.00860980	     -5.23919626	     23.78056247	     12.33775888	     33.78190143	      0.00000000	      0.00000000	     76.70241390	      0.32543432	    -23.56050112	     19.55560804	     33.90139905	      0.00000000	      0.00000000
      6.00500000	     87.81583475	     43.50088743	     87.39325675	      0.42017899	      0.61507165	      0.70115617	     96.43145572	     -8.39358447	     -1.12774357	     53.20729300	      0.92864245	      6.76833469	      0.00000000	      0.00000000	     95.16721315	    -20.38661749	     -4.27262126	     53.84340667	      0.93974473	      8.78046963	      0.00000000	      0.00000000	    -45.96392034	     -9.80062643	      0.66519935	     75.59539256	     -5.41680917	     23.99541230	     12.75326680	     34.51581458	      0.00000000	      0.00000000	     76.10909187	      0.08236556	    -22.02476881	     19.92806223	     34.70674525	      0.00000000	      0.00000000
      6.01000000	     87.80827730	     43.84119040	     87.33753474	      0.42019907	      0.61527151	      0.70010168	     96.35621097	     -8.35075352	     -1.09744876	     53.62610720	      0.93595214	      6.99796348	      0.00000000	      0.00000000	     95.10561290	    -20.53932204	     -4.25172083	     54.30595429	      0.94781771	      9.03395860	      0.00000000	      0.00000000	    -46.08063827	     -9.85427928	      0.75771875	     75.48593559	     -5.51618141	     24.41445525	     12.73520779	     35.34378083	      0.00000000	      0.00000000	     75.46976944	     -0.03286133	    -20.76033141	     20.51868058	     35.68093826	      0.00000000	      0.00000000
      6.01500000	     87.84009267	     44.00503268	     87.29956352	      0.42052959	      0.61528104	      0.69859621	     96.50211101	     -8.28981749	     -0.92848910	     54.08227302	      0.94391373	      7.13635979	      0.00000000	      0.00000000	     95.30321141	    -20.60963436	     -4.11485827	     54.81783501	      0.95675171	      9.17560934	      0.00000000	      0.00000000	    -45.96350721	     -9.80686498	      0.76722392	     75.51992731	     -5.33379890	     24.65047693	     12.18165515	     35.86243099	      0.00000000	      0.00000000	     75.28314189	     -0.08398210	    -21.07271046	     20.48367496	     36.32686381	      0.00000000	      0.00000000
      6.02000000	     87.89310714	     44.13787647	     87.34496159	      0.42087541	      0.61511821	      0.69705963	     96.68299279	     -8.39846147	     -0.90317070	     54.56120810	      0.95227273	      7.34943047	      0.00000000	      0.00000000	     95.49747786	    -20.54305763	     -3.93482733	     55.23973071	      0.96411518	      9.30118934	      0.00000000	      0.00000000	    -45.80812913	     -9.72850509	      0.84083640	     74.99342203	     -5.74705410	     24.60097650	     12.96325104	     36.28433352	      0.00000000	      0.00000000	     74.94678184	     -0.22235341	    -19.93031400	     20.43737933	     36.78007340	      0.00000000	      0.00000000
      6.02500000	     87.93618068	     43.99685620	     87.45398760	      0.42150071	      0.61495777	      0.69509715	     97.14458165	     -8.48353579	     -0.70754962	     54.99838992	      0.95990299	      7.48678940	      0.00000000	      0.00000000	     95.97215925	    -20.35909066	     -3.63265773	     55.60663717	      0.97051890	      9.43206101	      0.00000000	      0.00000000	    -45.33756941	     -9.65076002	      0.94759948	     74.01036497	     -6.37365781	     24.52092354	     14.40496847	     37.01632466	      0.00000000	      0.00000000	     73.96193825	     -0.18736299	    -18.10228013	     21.68721083	     37.55824793	      0.00000000	      0.00000000
      6.03000000	     87.85007105	     44.55537721	     87.51740722	      0.42127961	      0.61504370	      0.69448450	     96.87109542	     -8.53129937	     -0.64729651	     55.49019336	      0.96848658	      7.70399002	      0.00000000	      0.00000000	     95.62130424	    -20.47730545	     -3.78673237	     56.04078565	      0.97809623	      9.60503230	      0.00000000	      0.00000000	    -45.77087587	     -9.68386529	      0.75150550	     74.50779030	     -5.87182940	     25.05812489	     13.25313628	     37.30590094	      0.00000000	      0.00000000	     74.01568379	     -0.60049238	    -17.75510130	     21.22574864	     37.93713867	      0.00000000	      0.00000000
      6.03500000	     87.82503838	     44.66074822	     87.41002495	      0.42147086	      0.61515952	      0.69309426	     97.00215107	     -8.37145397	     -0.51419040	     55.80536656	      0.97398739	      7.86488902	      0.00000000	      0.00000000	     95.81874411	    -20.71214845	     -3.82279839	     56.52141697	      0.98648482	      9.81318392	      0.00000000	      0.00000000	    -45.57288229	     -9.68535466	      0.79382482	     74.94855827	     -5.24961281	     24.95902951	     11.77191189	     37.15198979	      0.00000000	      0.00000000	     74.36699583	     -0.00202175	    -21.38950976	     20.84327681	     37.92974833	      0.00000000	      0.00000000
      6.04000000	     87.91604940	     44.73364896	     87.49783706	      0.42169288	      0.61485220	      0.69162075	     97.20359546	     -8.54980068	     -0.48736357	     56.25181082	      0.98177931	      8.07579701	      0.00000000	      0.00000000	     96.03313489	    -20.55896085	     -3.62719006	     56.86788277	      0.99253179	      9.93824324	      0.00000000	      0.00000000	    -45.37995343	     -9.46679482	      0.80453440	     74.65635463	     -5.08869816	     23.17060590	     12.02913248	     36.43671156	      0.00000000	      0.00000000	     75.77422770	      0.67784467	    -26.35844377	     18.92764376	     37.12567953	      0.00000000	      0.00000000
      6.04500000	     87.97827724	     44.68520132	     87.60686175	      0.42232502	      0.61466396	      0.68981320	     97.56903649	     -8.66899875	     -0.35920366	     56.68322102	      0.98930884	      8.19422572	      0.00000000	      0.00000000	     96.41324725	    -20.34108463	     -3.28744917	     57.22389698	      0.99874541	     10.02431460	      0.00000000	      0.00000000	    -45.02871299	     -9.39511997	      0.87776882	     73.64723252	     -5.80770967	     23.22063899	     13.66378252	     37.13217861	      0.00000000	      0.00000000	     74.65772598	      0.38469511	    -23.09750141	     19.84729985	     37.78342540	      0.00000000	      0.00000000
      6.05000000	     87.89172867	     45.17326518	     87.59634897	      0.42215019	      0.61479419	      0.68926841	     97.29842572	     -8.60992717	     -0.26494337	     57.04012465	      0.99553798	      8.41896834	      0.00000000	      0.00000000	     96.11554226	    -20.54330969	     -3.45189935	     57.62618333	      1.00576663	     10.23064677	      0.00000000	      0.00000000	    -45.35253580	     -9.46762241	      0.86192602	     74.31222465	     -5.34003422	     23.92611741	     12.12917303	     37.22214592	      0.00000000	      0.00000000	     74.30340261	      0.40855889	    -22.65686034	     20.48828477	     38.06217489	      0.00000000	      0.00000000
